# xmcd CD database file
#
# Track frame offsets:
#	150
#	26332
#	51630
#	71135
#	94442
#	118902
#	142590
#	165542
#	191042
#	214597
#	239767
#	263467
#	289410
#
# Disc length: 4170 seconds
#
# Revision: 0
# Processed by: cddbd v1.5.1PL0 Copyright (c) Steve Scherf et al.
# Submitted via: CDex 1.51
#
DISCID=c910480d
DTITLE=Mal Waldron, Richie Beirach. Kazuo Yasiro, Eiji Kitamura, - Digital Jazz Standards Box 50
DYEAR=1986
DGENRE=Jazz
TTITLE0=JUST IN TIME
TTITLE1=SWEET GEORGIA BROWN
TTITLE2=POLKA DOTS AND MOONBEAMS
TTITLE3=MY BLUE HEAVEN
TTITLE4=SWEET LORRAINE
TTITLE5=ROSETTA
TTITLE6=YOU DON'T KNOW WHAT LOVE IS
TTITLE7=GOLDEN EARRIGS
TTITLE8=YOU TOOK ADVANTAGE OF ME
TTITLE9=THE NEARNESS OF YOU
TTITLE10=WHERE OR WHEN(BABES IN ARMS)
TTITLE11=JUST FRIENDS
TTITLE12=GONE WITH THE WIND
EXTD=YEAR: 1986
EXTT0=
EXTT1=
EXTT2=
EXTT3=
EXTT4=
EXTT5=
EXTT6=
EXTT7=
EXTT8=
EXTT9=
EXTT10=
EXTT11=
EXTT12=
PLAYORDER=
